ply
format ascii 1.0
element vertex 257
property float32 x
property float32 y
property float32 z
element face 510
property list uint8 int32 vertex_indices
end_header
0.0473 0.0409 0.0428
0.0856 0.0285 0.0068
0.0724 0.0755 0.0081
0.0178 0.0815 0.0118
0.0746 0.0033 -0.0366
0.0896 0.0546 -0.0355
0.0473 0.0921 -0.0389
0.0089 0.0534 -0.0335
0.0473 0.0409 -0.045
0.0289 0.0662 0.0373
0.0473 0.0867 0.015
0.0618 0.0609 0.0268
-0.0025 0.0549 0.0178
0.0716 0.033 0.028
0.0821 0.0522 0.0094
0.0844 0.0679 -0.0133
0.0891 0.0409 -0.0133
0.0642 0.0931 -0.0133
0.0786 0.0839 -0.0462
0.0308 0.0915 -0.0133
0.0095 0.0684 -0.0133
0.0253 0.0712 -0.0364
-0.0113 0.0409 -0.0133
0.0107 0.0103 -0.0145
0.0129 0.0297 -0.0357
0.0703 -0.03 -0.0133
0.0473 0.0011 -0.0379
0.0871 0.012 -0.0133
0.0852 0.0286 -0.0379
0.0473 0.0606 -0.0452
0.0675 0.0475 -0.0477
0.0309 0.0462 -0.0412
0.0371 0.0269 -0.0412
0.0583 0.0257 -0.0437
0.0377 0.0541 0.0441
0.0473 0.0648 0.0345
0.0552 0.0518 0.0343
0.0207 0.0774 0.028
0.0325 0.0851 0.014
0.0379 0.0795 0.0283
0.0556 0.0753 0.0238
0.061 0.0819 0.0121
0.0677 0.069 0.0185
0.0322 0.036 0.0427
0.0207 0.0495 0.0426
0.0032 0.0435 0.0312
0.0097 0.064 0.033
0.0062 0.0713 0.0166
0.0473 0.0265 0.0376
0.0289 0.0257 0.0329
0.0313 0.014 0.0163
0.0604 0.0366 0.0354
0.0796 0.0304 0.0178
0.083 0.0154 0.0124
0.0666 0.0472 0.0273
0.0786 0.0641 0.0096
0.0734 0.057 0.0188
0.0774 0.0432 0.0184
0.0843 0.0406 0.0084
0.08 0.0731 -0.0023
0.0843 0.0603 -0.0013
0.0892 0.0627 -0.0246
0.0889 0.0471 -0.0233
0.0877 0.054 -0.0133
0.087 0.0467 -0.0017
0.0883 0.0348 -0.0034
0.0696 0.0858 -0.0013
0.0774 0.0824 -0.0133
0.0572 0.1003 -0.0277
0.0638 0.0932 -0.0455
0.074 0.0951 -0.0307
0.0878 0.0804 -0.0296
0.0879 0.0699 -0.0426
0.0559 0.091 0.0013
0.0234 0.0889 -0.0005
0.0383 0.0934 0.002
0.0473 0.0973 -0.0133
0.0375 0.0992 -0.0274
0.0069 0.0806 0.0002
0.0184 0.0806 -0.0133
0.0048 0.063 -0.0248
0.0171 0.0625 -0.0351
0.0129 0.0744 -0.0271
0.0243 0.0876 -0.0283
0.0348 0.0805 -0.0377
-0.0035 0.0676 0.0032
-0.0167 0.0313 0.0022
-0.0133 0.0497 0.0043
0.0003 0.0562 -0.0133
-0.0032 0.0484 -0.0255
-0.0054 0.0135 0.0009
-0.0115 0.0218 -0.0133
0.0172 0.0187 -0.0352
-0.0019 0.015 -0.0293
-0.0064 0.0331 -0.0289
0.01 0.0412 -0.0351
0.0127 0.0072 0.0006
0.0584 -0.0254 0.0028
0.0745 -0.0137 -0.0279
0.0611 -0.0004 -0.0388
0.0586 -0.0252 -0.0326
0.0755 -0.0164 0.0051
0.0887 0.0193 -0.0021
0.0849 0.0043 0.0018
0.0827 -0.0078 -0.0133
0.082 0.0068 -0.0249
0.0892 0.0273 -0.0133
0.0883 0.0412 -0.0373
0.0866 0.0352 -0.0247
0.0851 0.021 -0.0256
0.0809 0.0161 -0.0378
0.0729 0.0627 -0.0486
0.0818 0.0521 -0.0464
0.0473 0.0751 -0.0445
0.0598 0.0713 -0.0478
0.0574 0.0548 -0.0477
0.0473 0.05 -0.0453
0.0563 0.0438 -0.0465
0.0369 0.0662 -0.042
0.0213 0.0493 -0.0383
0.028 0.0573 -0.0398
0.0385 0.0529 -0.0431
0.0392 0.0435 -0.0431
0.0229 0.039 -0.039
0.0308 0.0182 -0.0389
0.0262 0.0279 -0.0392
0.0338 0.0365 -0.0416
0.0423 0.0341 -0.0431
0.0413 0.0163 -0.0398
0.0659 0.0153 -0.0422
0.0535 0.0151 -0.0411
0.0473 0.0262 -0.0427
0.0526 0.0336 -0.045
0.0723 0.0255 -0.0441
0.0782 0.0385 -0.0458
0.0628 0.0359 -0.0458
0.0744 0.006 0.0188
0.0225 0.0099 0.0125
0.013 0.0152 0.0024
0.0343 0.0393 0.03
0.0326 0.0522 0.03
0.0175 0.05 0.03
-0.0043 0.0414 0.0121
0.0392 0.0296 0.015
0.0499 0.0415 0.015
0.057 0.0512 0.015
0.0455 0.0578 0.015
0.0453 0.069 0.015
0.0321 0.0717 0.015
0.017 0.0693 0.015
0.0105 0.061 0.015
0.0087 0.0606 0
-0.0002 0.0485 0
-0.0062 0.0345 0.0053
-0.0033 0.0216 0.002
0.0267 0.0182 0
0.0361 0.0296 0
0.0473 0.0352 0
0.058 0.0471 0
0.0592 0.0628 0
0.0458 0.0716 0
0.0315 0.0759 0
0.0179 0.0701 0
0.0255 0.0554 -0.015
0.0128 0.0542 -0.015
0.004 0.0432 -0.015
0.004 0.0315 -0.015
0.0162 0.029 -0.015
0.0289 0.0273 -0.015
0.0336 0.0368 -0.015
0.0482 0.0407 -0.015
0.0577 0.049 -0.015
0.0645 0.0607 -0.015
0.0648 0.0747 -0.015
0.0528 0.0844 -0.015
0.0377 0.0825 -0.015
0.0357 0.0693 -0.015
0.0248 0.067 -0.03
0.0192 0.0548 -0.03
0.0197 0.0423 -0.03
0.0302 0.0452 -0.03
0.0373 0.0533 -0.03
0.0442 0.066 -0.03
0.0459 0.079 -0.03
0.0322 0.0783 -0.03
0.0317 0.0607 -0.035
0.0216 0.0347 0.0362
0.0136 0.0376 0.0343
0.0046 0.0148 0.0038
0.0216 0.0063 -0.0322
0.0645 0.0214 0.0304
0.0743 0.0155 0.0239
0.0655 -0.0082 0.0176
0.0145 0.0062 -0.0234
0.0395 -0.0191 -0.0294
0.0315 0.0036 -0.0345
0.0336 -0.004 -0.0326
0.0563 0.0332 0.03
0.0465 0.0298 0.03
0.0454 0.02 0.0322
0.0413 0.0097 0.0179
0.0351 0.0048 0.0145
0.0534 -0.0081 0.0146
0.0774 0.021 0.015
0.0762 0.0381 0.015
0.0684 0.042 0.015
0.0594 0.0298 0.015
0.0504 0.021 0.015
0.0364 0.0104 0
0.0258 0.0045 -0.001
0.0509 -0.0186 0.0009
0.0652 -0.0196 0
0.0737 -0.0092 0
0.0783 0.0051 0
0.0793 0.0187 0
0.0793 0.0322 0
0.0769 0.0453 0
0.0701 0.0388 0
0.0577 0.0276 0
0.048 0.0172 0
0.0431 0.018 -0.015
0.0218 0.0148 -0.015
0.0519 -0.0236 -0.0163
0.0694 -0.0171 -0.015
0.0758 -0.0059 -0.015
0.0789 0.0073 -0.015
0.0804 0.0197 -0.015
0.0765 0.0339 -0.015
0.0658 0.0302 -0.015
0.0509 0.0283 -0.015
0.039 0.0242 -0.03
0.0273 0.0117 -0.03
0.054 -0.014 -0.03
0.0613 -0.0008 -0.03
0.0667 0.0137 -0.03
0.0691 0.0271 -0.03
0.0726 0.0411 -0.03
0.0606 0.0442 -0.03
0.0496 0.0354 -0.03
0.055 0.0475 -0.0375
0.0484 0.0402 -0.0375
0.044 0.0303 -0.0375
0.0431 0.0206 -0.0375
0.0528 0.014 -0.0375
0.0615 0.0179 -0.0375
0.0659 0.0274 -0.0375
0.0695 0.0364 -0.0375
0.0725 0.047 -0.0375
0.0691 0.0563 -0.0375
0.0613 0.0529 -0.0375
0.0585 0.0355 -0.045
0.0435 0.0135 0.0266
0.0163 0.006 -0.0066
0.0316 0.006 0.0076
0.0512 -0.0142 0.0082
0.0517 -0.0235 -0.007
0.0554 0.0229 0.0342
3 49 50 143
3 49 143 139
3 139 143 144
3 139 144 140
3 140 144 145
3 140 145 146
3 140 146 147
3 140 147 148
3 140 148 149
3 140 149 141
3 141 149 150
3 141 150 12
3 50 155 156
3 50 156 143
3 143 156 157
3 143 157 144
3 144 157 158
3 144 158 145
3 145 158 159
3 145 159 146
3 146 159 160
3 146 160 147
3 147 160 148
3 148 160 161
3 148 161 162
3 148 162 149
3 149 162 150
3 150 162 151
3 150 151 12
3 12 151 152
3 155 168 156
3 156 168 169
3 156 169 157
3 157 169 170
3 157 170 158
3 158 170 171
3 158 171 159
3 159 171 172
3 159 172 173
3 159 173 160
3 160 173 174
3 160 174 175
3 160 175 161
3 161 175 176
3 161 176 162
3 162 176 163
3 162 163 164
3 162 164 151
3 151 164 152
3 152 164 165
3 152 165 153
3 153 165 166
3 153 166 154
3 154 166 138
3 138 166 167
3 138 167 155
3 155 167 168
3 168 179 169
3 169 179 180
3 169 180 181
3 169 181 170
3 170 181 171
3 171 181 182
3 171 182 172
3 172 182 173
3 173 182 183
3 173 183 174
3 174 183 175
3 175 183 184
3 175 184 176
3 176 184 177
3 176 177 163
3 163 177 178
3 163 178 164
3 164 178 179
3 164 179 165
3 165 179 166
3 166 179 167
3 167 179 168
3 179 185 180
3 180 185 181
3 181 185 182
3 182 185 183
3 183 185 184
3 184 185 177
3 177 185 178
3 178 185 179
3 140 186 139
3 141 186 140
3 12 152 142
3 50 137 155
3 45 187 141
3 138 188 154
3 141 12 45
3 152 153 142
3 138 155 137
3 139 186 49
3 187 186 141
3 190 203 204
3 190 204 205
3 190 205 206
3 190 206 207
3 190 207 197
3 197 207 198
3 198 207 199
3 199 207 200
3 202 210 192
3 192 210 211
3 192 211 212
3 192 212 136
3 136 212 213
3 136 213 203
3 203 213 214
3 203 214 204
3 204 214 215
3 204 215 216
3 204 216 217
3 204 217 205
3 205 217 218
3 205 218 206
3 206 218 219
3 206 219 207
3 207 219 208
3 207 208 200
3 210 222 223
3 210 223 211
3 211 223 224
3 211 224 212
3 212 224 225
3 212 225 213
3 213 225 226
3 213 226 214
3 214 226 227
3 214 227 215
3 215 227 216
3 216 227 217
3 217 227 218
3 218 227 228
3 218 228 229
3 218 229 219
3 219 229 220
3 219 220 208
3 220 230 221
3 221 230 231
3 222 194 232
3 222 232 223
3 223 232 233
3 223 233 224
3 224 233 234
3 224 234 225
3 225 234 235
3 225 235 226
3 226 235 236
3 226 236 227
3 227 236 228
3 228 236 237
3 228 237 229
3 229 237 238
3 229 238 220
3 220 238 230
3 230 249 239
3 230 239 231
3 231 239 240
3 231 240 241
3 194 243 244
3 194 244 232
3 232 244 245
3 232 245 233
3 233 245 246
3 233 246 234
3 234 246 247
3 234 247 235
3 235 247 248
3 235 248 249
3 235 249 236
3 236 249 237
3 237 249 238
3 238 249 230
3 249 250 239
3 239 250 240
3 240 250 241
3 241 250 242
3 242 250 243
3 243 250 244
3 244 250 245
3 245 250 246
3 246 250 247
3 247 250 248
3 248 250 249
3 190 191 203
3 199 200 251
3 200 208 209
3 208 220 209
3 231 241 189
3 242 189 241
3 200 253 201
3 202 254 210
3 210 255 222
3 197 198 256
3 256 198 199
3 136 203 191
3 220 221 209
3 221 231 23
3 196 195 242
3 242 243 196
3 256 190 197
3 200 209 253
3 221 252 209
3 221 23 252
3 231 193 23
3 195 189 242
3 189 193 231
3 194 196 243
3 194 195 196
3 254 202 192
3 0 34 36
3 34 9 35
3 36 34 35
3 36 35 11
3 9 37 39
3 37 3 38
3 39 37 38
3 39 38 10
3 11 35 40
3 35 9 39
3 40 35 39
3 40 39 10
3 11 40 42
3 40 10 41
3 42 40 41
3 42 41 2
3 0 43 34
3 34 43 44
3 34 44 9
3 9 44 46
3 46 44 45
3 46 45 12
3 9 46 37
3 46 12 47
3 37 46 47
3 37 47 3
3 0 48 43
3 43 48 49
3 0 51 48
3 51 13 190
3 48 51 190
3 13 52 191
3 52 1 53
3 191 52 53
3 191 53 136
3 190 13 191
3 0 36 51
3 36 11 54
3 51 36 54
3 51 54 13
3 11 42 56
3 42 2 55
3 56 42 55
3 56 55 14
3 13 54 57
3 54 11 56
3 57 54 56
3 57 56 14
3 13 57 52
3 57 14 58
3 52 57 58
3 52 58 1
3 2 59 55
3 59 15 60
3 55 59 60
3 55 60 14
3 15 61 63
3 61 5 62
3 63 61 62
3 63 62 16
3 14 60 64
3 60 15 63
3 64 60 63
3 64 63 16
3 14 64 58
3 64 16 65
3 58 64 65
3 58 65 1
3 2 66 59
3 66 17 67
3 59 66 67
3 59 67 15
3 17 68 70
3 68 6 69
3 70 68 69
3 70 69 18
3 15 67 71
3 67 17 70
3 71 67 70
3 71 70 18
3 15 71 61
3 71 18 72
3 61 71 72
3 61 72 5
3 2 41 66
3 41 10 73
3 66 41 73
3 66 73 17
3 10 38 75
3 38 3 74
3 75 38 74
3 75 74 19
3 17 73 76
3 73 10 75
3 76 73 75
3 76 75 19
3 17 76 68
3 76 19 77
3 68 76 77
3 68 77 6
3 3 78 74
3 78 20 79
3 74 78 79
3 74 79 19
3 20 80 82
3 80 7 81
3 82 80 81
3 82 81 21
3 19 79 83
3 79 20 82
3 83 79 82
3 83 82 21
3 19 83 77
3 83 21 84
3 77 83 84
3 77 84 6
3 3 47 78
3 47 12 85
3 78 47 85
3 78 85 20
3 87 86 22
3 20 85 88
3 85 12 87
3 88 85 87
3 88 87 22
3 20 88 80
3 88 22 89
3 80 88 89
3 80 89 7
3 90 23 91
3 86 90 91
3 86 91 22
3 23 193 93
3 93 193 92
3 93 92 24
3 22 91 94
3 91 23 93
3 94 91 93
3 94 93 24
3 22 94 89
3 94 24 95
3 89 94 95
3 89 95 7
3 90 96 23
3 25 98 100
3 98 4 99
3 100 98 99
3 100 99 26
3 194 100 26
3 194 26 195
3 97 192 101
3 97 101 25
3 136 53 103
3 53 1 102
3 103 53 102
3 103 102 27
3 25 101 104
3 101 136 103
3 104 101 103
3 104 103 27
3 25 104 98
3 104 27 105
3 98 104 105
3 98 105 4
3 1 65 102
3 65 16 106
3 102 65 106
3 102 106 27
3 16 62 108
3 62 5 107
3 108 62 107
3 108 107 28
3 27 106 109
3 106 16 108
3 109 106 108
3 109 108 28
3 27 109 105
3 109 28 110
3 105 109 110
3 105 110 4
3 5 72 112
3 72 18 111
3 112 72 111
3 112 111 30
3 18 69 114
3 69 6 113
3 114 69 113
3 114 113 29
3 30 111 115
3 111 18 114
3 115 111 114
3 115 114 29
3 30 115 117
3 115 29 116
3 117 115 116
3 117 116 8
3 6 84 113
3 84 21 118
3 113 84 118
3 113 118 29
3 21 81 120
3 81 7 119
3 120 81 119
3 120 119 31
3 29 118 121
3 118 21 120
3 121 118 120
3 121 120 31
3 29 121 116
3 121 31 122
3 116 121 122
3 116 122 8
3 7 95 119
3 95 24 123
3 119 95 123
3 119 123 31
3 24 92 125
3 92 189 124
3 125 92 124
3 125 124 32
3 31 123 126
3 123 24 125
3 126 123 125
3 126 125 32
3 31 126 122
3 126 32 127
3 122 126 127
3 122 127 8
3 189 195 124
3 195 26 128
3 124 195 128
3 124 128 32
3 26 99 130
3 99 4 129
3 130 99 129
3 130 129 33
3 32 128 131
3 128 26 130
3 131 128 130
3 131 130 33
3 32 131 127
3 131 33 132
3 127 131 132
3 127 132 8
3 4 110 129
3 110 28 133
3 129 110 133
3 129 133 33
3 28 107 134
3 107 5 112
3 134 107 112
3 134 112 30
3 33 133 135
3 133 28 134
3 135 133 134
3 135 134 30
3 33 135 132
3 135 30 117
3 132 135 117
3 132 117 8
3 48 199 49
3 49 199 50
3 48 190 256
3 193 189 92
3 23 96 252
3 96 137 209
3 25 100 222
3 136 101 192
3 48 256 199
3 50 201 137
3 201 253 137
3 25 222 97
3 222 255 97
3 97 254 192
3 50 251 200
3 50 200 201
3 251 50 199
3 209 137 253
3 254 97 210
3 97 255 210
3 222 100 194
3 252 96 209
3 43 186 44
3 44 187 45
3 87 142 86
3 90 86 154
3 137 96 138
3 90 188 96
3 86 142 153
3 96 188 138
3 188 90 154
3 44 186 187
3 186 43 49
3 142 87 12
3 86 153 154